# Made in Blockbench 4.10.3
mtllib photonlamp.mtl

o cube
v 0.125 0.1875 0.125
v 0.125 0.1875 -0.125
v 0.125 -0.125 0.125
v 0.125 -0.125 -0.125
v -0.125 0.1875 0.125
v -0.125 0.1875 -0.125
v -0.125 -0.125 0.125
v -0.125 -0.125 -0.125
vt 0.125 0.84375
vt 0.125 1
vt 0 1
vt 0 0.84375
vt 0.28125 0.84375
vt 0.28125 1
vt 0.15625 1
vt 0.15625 0.84375
vt 0.4375 0.875
vt 0.4375 1
vt 0.3125 1
vt 0.3125 0.875
vt 0.4375 0.71875
vt 0.4375 0.84375
vt 0.3125 0.84375
vt 0.3125 0.71875
vt 0.125 0.65625
vt 0.125 0.8125
vt 0 0.8125
vt 0 0.65625
vt 0.28125 0.65625
vt 0.28125 0.8125
vt 0.15625 0.8125
vt 0.15625 0.65625
vn 1 0 0
vn -1 0 0
vn 0 1 0
vn 0 -1 0
vn 0 0 1
vn 0 0 -1
usemtl m_9a298135-0245-107b-449d-7b1694938032
f 4/1/1 2/2/1 1/3/1 3/4/1
f 7/5/2 5/6/2 6/7/2 8/8/2
f 1/9/3 2/10/3 6/11/3 5/12/3
f 4/13/4 3/14/4 7/15/4 8/16/4
f 3/17/5 1/18/5 5/19/5 7/20/5
f 8/21/6 6/22/6 2/23/6 4/24/6
o cube
v 0.0625 0.25 0.0625
v 0.0625 0.25 -0.0625
v 0.0625 0.1875 0.0625
v 0.0625 0.1875 -0.0625
v -0.0625 0.25 0.0625
v -0.0625 0.25 -0.0625
v -0.0625 0.1875 0.0625
v -0.0625 0.1875 -0.0625
vt 0.34375 0.5625
vt 0.34375 0.59375
vt 0.28125 0.59375
vt 0.28125 0.5625
vt 0.46875 0.65625
vt 0.46875 0.6875
vt 0.40625 0.6875
vt 0.40625 0.65625
vt 0.375 0.625
vt 0.375 0.6875
vt 0.3125 0.6875
vt 0.3125 0.625
vt 0.0625 0.5625
vt 0.0625 0.625
vt 0 0.625
vt 0 0.5625
vt 0.4375 0.5625
vt 0.4375 0.59375
vt 0.375 0.59375
vt 0.375 0.5625
vt 0.0625 0.5
vt 0.0625 0.53125
vt 0 0.53125
vt 0 0.5
vn 1 0 0
vn -1 0 0
vn 0 1 0
vn 0 -1 0
vn 0 0 1
vn 0 0 -1
usemtl m_9a298135-0245-107b-449d-7b1694938032
f 12/25/7 10/26/7 9/27/7 11/28/7
f 15/29/8 13/30/8 14/31/8 16/32/8
f 9/33/9 10/34/9 14/35/9 13/36/9
f 12/37/10 11/38/10 15/39/10 16/40/10
f 11/41/11 9/42/11 13/43/11 15/44/11
f 16/45/12 14/46/12 10/47/12 12/48/12
o cube
v 0.0625 -0.125 0.0625
v 0.0625 -0.125 -0.0625
v 0.0625 -0.1875 0.0625
v 0.0625 -0.1875 -0.0625
v -0.0625 -0.125 0.0625
v -0.0625 -0.125 -0.0625
v -0.0625 -0.1875 0.0625
v -0.0625 -0.1875 -0.0625
vt 0.53125 0.96875
vt 0.53125 1
vt 0.46875 1
vt 0.46875 0.96875
vt 0.53125 0.90625
vt 0.53125 0.9375
vt 0.46875 0.9375
vt 0.46875 0.90625
vt 0.15625 0.5625
vt 0.15625 0.625
vt 0.09375 0.625
vt 0.09375 0.5625
vt 0.25 0.5625
vt 0.25 0.625
vt 0.1875 0.625
vt 0.1875 0.5625
vt 0.15625 0.5
vt 0.15625 0.53125
vt 0.09375 0.53125
vt 0.09375 0.5
vt 0.53125 0.84375
vt 0.53125 0.875
vt 0.46875 0.875
vt 0.46875 0.84375
vn 1 0 0
vn -1 0 0
vn 0 1 0
vn 0 -1 0
vn 0 0 1
vn 0 0 -1
usemtl m_9a298135-0245-107b-449d-7b1694938032
f 20/49/13 18/50/13 17/51/13 19/52/13
f 23/53/14 21/54/14 22/55/14 24/56/14
f 17/57/15 18/58/15 22/59/15 21/60/15
f 20/61/16 19/62/16 23/63/16 24/64/16
f 19/65/17 17/66/17 21/67/17 23/68/17
f 24/69/18 22/70/18 18/71/18 20/72/18